<svg xmlns="http://www.w3.org/2000/svg"  viewBox="0 0 48 48" width="96px" height="96px"><path fill="#71c598" d="M10.106,44.273c5,0,3.611-0.064,8.11-0.069c3.752-0.004,6.202-0.362,8.892-0.209	c2.228,0.127,4.42,0.438,6.647,0.291c3.044-0.2,7.326,1.134,9.489-1.663c1.367-1.768,0.831-4.719,0.769-6.893	c-0.095-3.321,0.473-8.466,0.237-10.628c-0.611-5.605-0.437-7.204-0.208-12.838c0.083-2.056,0.352-4.888-0.935-6.492	c-1.24-1.545-3.227-2.06-6.598-2.017c-4.447,0.057-7.87,0.134-12.317,0.111c-1.699-0.009-3.553-0.098-5.253-0.106	c-1.371-0.007-4.453-0.215-5.824-0.193c-1.275,0.02-4.203,0.099-5.508,0.205C6.3,3.879,4.859,4.881,4.286,6.059	C4.041,6.561,3.971,7.126,3.842,7.67c-0.242,1.02-0.128,10.078-0.075,10.611c0.5,5,0.339,2.492,0.339,7.492	c0,1.388-0.323,3.712-0.335,6.362c-0.016,3.513-0.001,5.052,0.335,7.138C4.59,42.276,6.197,44.466,10.106,44.273"/><path fill="#010101" d="M38.463,44.933c-0.705,0-1.415-0.044-2.1-0.087c-0.923-0.058-1.795-0.111-2.576-0.06	c-1.62,0.105-3.236-0.024-4.798-0.151c-0.635-0.052-1.271-0.104-1.91-0.14c-1.465-0.084-2.853-0.015-4.46,0.069	c-1.274,0.064-2.718,0.139-4.402,0.14c-2.154,0.002-2.955,0.019-3.756,0.034c-0.872,0.018-1.745,0.035-4.342,0.035	c-3.712,0.177-5.897-1.646-6.506-5.421c-0.35-2.171-0.357-3.782-0.341-7.22c0.007-1.535,0.119-2.987,0.209-4.153	c0.067-0.876,0.126-1.632,0.126-2.206c0-1.278,0.01-2.067,0.018-2.616c0.017-1.225,0.017-1.225-0.161-2.929l-0.194-1.897	c-0.046-0.46-0.183-9.646,0.086-10.777c0.031-0.132,0.059-0.266,0.087-0.399c0.09-0.434,0.184-0.883,0.394-1.314	c0.654-1.343,2.257-2.444,3.729-2.564c1.344-0.109,4.368-0.188,5.541-0.207c0.763-0.012,2.049,0.046,3.285,0.103	c0.987,0.044,1.938,0.088,2.549,0.091c0.854,0.005,1.746,0.029,2.638,0.054c0.884,0.024,1.769,0.049,2.615,0.053	c3.392,0.016,6.129-0.023,9.298-0.069l3.01-0.042c3.67-0.065,5.701,0.592,6.995,2.204c1.29,1.606,1.168,4.183,1.07,6.253	l-0.099,2.303c-0.185,4.303-0.261,6.084,0.279,11.032c0.13,1.193,0.026,3.216-0.084,5.356c-0.095,1.859-0.194,3.782-0.15,5.312	c0.011,0.404,0.04,0.834,0.068,1.279c0.133,2.038,0.284,4.349-0.942,5.934C42.354,44.592,40.425,44.933,38.463,44.933z M34.47,43.766c0.624,0,1.276,0.04,1.955,0.082c2.457,0.155,5,0.311,6.422-1.529c0.994-1.286,0.856-3.396,0.735-5.257	c-0.03-0.458-0.059-0.9-0.071-1.315c-0.044-1.57,0.055-3.513,0.152-5.393c0.108-2.1,0.21-4.083,0.088-5.195	c-0.548-5.024-0.471-6.828-0.284-11.185l0.099-2.307c0.09-1.901,0.202-4.269-0.852-5.581c-1.076-1.341-2.859-1.879-6.202-1.829	l-3.008,0.042c-3.175,0.046-5.918,0.086-9.318,0.069c-0.854-0.005-1.746-0.029-2.638-0.054c-0.884-0.024-1.769-0.049-2.615-0.053	c-0.62-0.003-1.587-0.047-2.589-0.093c-1.22-0.055-2.477-0.11-3.224-0.101c-1.163,0.019-4.156,0.096-5.476,0.203	C6.518,4.364,5.239,5.245,4.735,6.277C4.58,6.597,4.502,6.967,4.421,7.358c-0.03,0.143-0.06,0.285-0.093,0.427	c-0.211,0.887-0.139,9.694-0.064,10.446l0.193,1.894c0.182,1.746,0.183,1.774,0.166,3.045c-0.007,0.547-0.018,1.331-0.018,2.604	c0,0.612-0.06,1.387-0.129,2.283c-0.093,1.21-0.199,2.581-0.206,4.08c-0.017,3.612,0.006,5.055,0.329,7.058	c0.521,3.236,2.292,4.724,5.482,4.58l0.024-0.001c2.595,0,3.465-0.018,4.334-0.035c0.806-0.016,1.611-0.032,3.775-0.034	c1.66-0.001,3.09-0.074,4.353-0.139c1.636-0.084,3.048-0.156,4.568-0.068c0.647,0.037,1.291,0.089,1.934,0.141	c1.597,0.131,3.104,0.251,4.652,0.15C33.966,43.772,34.216,43.766,34.47,43.766z"/><path fill="#d6e5e5" d="M20.665,25.639c1.18,1.041,2.361,2.082,3.541,3.122c0.607,0.535,2.275,2.097,3.081,2.159	c1.156,0.089,3.066-1.841,4.212-2.015c0.821-0.124,2.26,0.624,3,1c0.93,0.473,1.35,0.924,2.175,1.617	c1.096,0.922,1.247,1.844,1.115,2.84c-0.082,0.623-0.528,1.13-0.982,1.564c-0.617,0.589-1.468,1.392-2.292,1.611	c-1.271,0.337-2.546,0.125-3.77-0.356c-1.86-0.731-3.991-1.621-5.663-2.714c-2.594-1.695-6.645-5.145-8.582-7.563	c-3.28-4.095-4.289-6.04-6-11c-0.331-0.958-0.41-3.073,0-4c0.386-0.873,1.192-2.014,2.074-2.38c0.429-0.178,0.88-0.334,1.344-0.327	c0.976,0.015,1.782,0.727,2.492,1.397c1.318,1.245,2.727,2.676,2.827,4.487c0.076,1.379-0.636,2.667-1.362,3.841	c-0.229,0.371-0.468,0.754-0.526,1.187c-0.067,0.495,0.112,0.987,0.308,1.446C18.351,23.179,19.485,24.329,20.665,25.639"/><path fill="#010101" d="M33.231,38.204c-0.841,0-1.724-0.185-2.669-0.557c-1.994-0.783-4.07-1.661-5.753-2.76	c-2.589-1.691-6.702-5.177-8.699-7.669c-3.229-4.031-4.31-6.011-6.083-11.149c-0.378-1.096-0.445-3.325,0.016-4.365	c0.45-1.017,1.347-2.228,2.339-2.64c0.444-0.185,0.977-0.358,1.543-0.365c1.13,0.019,2.017,0.768,2.828,1.534	c1.45,1.37,2.875,2.872,2.982,4.822c0.085,1.53-0.696,2.936-1.435,4.132c-0.214,0.347-0.412,0.667-0.456,0.99	c-0.046,0.346,0.075,0.723,0.272,1.184c0.589,1.377,1.544,2.429,2.556,3.542l0.344,0.38l3.726,3.287	c0.5,0.447,2.023,1.809,2.583,1.853c0.483,0.032,1.328-0.523,2.021-0.974c0.748-0.484,1.454-0.942,2.078-1.037	c0.877-0.128,2.132,0.453,3.234,1.015c0.86,0.438,1.31,0.827,1.878,1.32l0.459,0.394c1.375,1.156,1.411,2.365,1.289,3.289	c-0.104,0.784-0.63,1.38-1.133,1.859c-0.617,0.589-1.55,1.479-2.51,1.732C34.184,38.144,33.714,38.204,33.231,38.204z M13.887,9.699	c-0.375,0-0.76,0.139-1.121,0.289c-0.701,0.291-1.44,1.287-1.809,2.12c-0.345,0.78-0.282,2.772,0.016,3.635	c1.746,5.061,2.742,6.886,5.917,10.851c1.937,2.418,5.941,5.808,8.465,7.456c1.608,1.051,3.628,1.903,5.573,2.668	c1.283,0.505,2.413,0.613,3.459,0.337c0.712-0.188,1.532-0.971,2.075-1.488c0.376-0.359,0.769-0.791,0.832-1.268	c0.114-0.865-0.002-1.603-0.941-2.393l-0.471-0.404c-0.537-0.466-0.925-0.802-1.609-1.15c-0.664-0.338-2.055-1.045-2.699-0.951	c-0.411,0.062-1.058,0.482-1.684,0.888c-0.904,0.587-1.848,1.214-2.642,1.131c-0.828-0.063-2.072-1.119-3.173-2.104l-3.783-3.341	l-0.361-0.398c-1.07-1.178-2.08-2.29-2.735-3.822c-0.227-0.53-0.425-1.104-0.344-1.709c0.072-0.535,0.348-0.981,0.591-1.375	c0.694-1.124,1.361-2.317,1.292-3.56c-0.088-1.584-1.313-2.867-2.671-4.15c-0.696-0.657-1.385-1.248-2.157-1.261	C13.902,9.699,13.895,9.699,13.887,9.699z"/></svg>