<svg xmlns="http://www.w3.org/2000/svg" xmlns:xlink="http://www.w3.org/1999/xlink" viewBox="0,0,256,256" width="100px" height="100px"><g fill="#ffffff" fill-rule="nonzero" stroke="none" stroke-width="1" stroke-linecap="butt" stroke-linejoin="miter" stroke-miterlimit="10" stroke-dasharray="" stroke-dashoffset="0" font-family="none" font-weight="none" font-size="none" text-anchor="none" style="mix-blend-mode: normal"><g transform="scale(2.56,2.56)"><path d="M50,15c-19.31842,0 -35,15.68158 -35,35c0,6.13094 1.607,11.88445 4.37891,16.89648l-4.30664,15.56836c-0.4005,1.44913 1.01317,2.86353 2.46289,2.46094l15.57031,-4.30664c5.01262,2.77234 10.76418,4.38086 16.89453,4.38086c19.31842,0 35,-15.68158 35,-35c0,-19.31842 -15.68158,-35 -35,-35zM50,17c18.23758,0 33,14.76242 33,33c0,18.23758 -14.76242,33 -33,33c-5.93519,0 -11.49272,-1.57308 -16.30469,-4.31445c-0.23133,-0.13131 -0.50545,-0.16504 -0.76172,-0.09375l-15.93359,4.40625l4.4082,-15.93164c0.0707,-0.25653 0.03626,-0.53065 -0.0957,-0.76172c-2.74039,-4.81096 -4.3125,-10.3695 -4.3125,-16.30469c0,-18.23758 14.76242,-33 33,-33zM50,22c-15.45821,0 -28,12.54179 -28,28c0,5.88157 1.8362,11.33011 4.93555,15.83594l-2.52734,9.14062c-0.04799,0.17356 0.00104,0.35953 0.12837,0.48686c0.12733,0.12733 0.3133,0.17637 0.48686,0.12837l9.14062,-2.52734c4.50629,3.10026 9.95444,4.93555 15.83594,4.93555c15.45821,0 28,-12.54179 28,-28c0,-7.69965 -3.11124,-14.67844 -8.14453,-19.74023c-0.1947,-0.19632 -0.51169,-0.19763 -0.70801,-0.00293c-0.19632,0.1947 -0.19763,0.51169 -0.00293,0.70801c4.85471,4.88221 7.85547,11.60481 7.85547,19.03516c0,14.91779 -12.08221,27 -27,27c-5.76229,0 -11.09414,-1.80835 -15.47852,-4.88281c-0.12219,-0.0855 -0.27618,-0.112 -0.41992,-0.07227l-8.49414,2.34961l2.34961,-8.49414c0.03974,-0.14375 0.01324,-0.29773 -0.07227,-0.41992c-3.07449,-4.38442 -4.88477,-9.71722 -4.88477,-15.48047c0,-14.91779 12.08221,-27 27,-27c2.55371,0 5.02093,0.36246 7.36328,1.02539c0.2659,0.07551 0.54266,-0.07883 0.61816,-0.34473c0.07551,-0.2659 -0.07883,-0.54266 -0.34473,-0.61816c-2.42764,-0.68707 -4.98843,-1.0625 -7.63672,-1.0625zM60.49609,24.07813c-0.23865,0.00085 -0.44344,0.17022 -0.48906,0.40447c-0.04561,0.23425 0.08066,0.46809 0.30156,0.55842c1.0144,0.41989 1.996,0.90191 2.94531,1.4375c0.1559,0.09899 0.35367,0.104 0.51438,0.01302c0.16071,-0.09098 0.2582,-0.26312 0.25355,-0.44774c-0.00464,-0.18462 -0.11066,-0.35164 -0.27575,-0.43442c-0.98268,-0.55441 -2.00109,-1.05607 -3.05469,-1.49219c-0.06183,-0.02599 -0.12825,-0.03927 -0.19531,-0.03906zM65.50195,26.78125c-0.22138,-0.00253 -0.41807,0.1408 -0.48346,0.35232c-0.06539,0.21151 0.01608,0.44085 0.20026,0.5637c0.67739,0.46306 1.33334,0.95489 1.96289,1.47461c0.21304,0.17582 0.52828,0.14566 0.7041,-0.06738c0.17582,-0.21304 0.14566,-0.52828 -0.06738,-0.7041c-0.65445,-0.54028 -1.33649,-1.0484 -2.03711,-1.52734c-0.0818,-0.05789 -0.1791,-0.08988 -0.2793,-0.0918zM38.50586,34.00781c-0.66061,0 -1.68158,0.25222 -2.52734,1.19141c-0.70739,0.7735 -2.98047,2.97451 -2.98047,7.19727c0,4.28333 3.02497,8.26711 3.41406,8.79883l0.00195,0.00391l0.00195,0.00195c0.01442,0.01916 0.15971,0.2376 0.35938,0.5332c0.19967,0.2956 0.47281,0.69266 0.81445,1.16406c0.68328,0.94279 1.6412,2.18294 2.84961,3.51172c2.41683,2.65756 5.8311,5.67623 10.06055,7.36719v0.00195c3.4509,1.37654 5.54951,1.93861 7.00391,2.13672c1.4544,0.19811 2.27082,0.01839 2.9668,-0.04492h0.00195c0.91458,-0.0871 2.12233,-0.61513 3.27344,-1.36914c1.1511,-0.75401 2.22715,-1.72128 2.63281,-2.87695c0.35241,-1.00032 0.53061,-1.92792 0.59375,-2.66602c0.03157,-0.36905 0.03391,-0.69094 0.01367,-0.95898c-0.02024,-0.26804 -0.0334,-0.46372 -0.16992,-0.69922h-0.00195c-0.17715,-0.30406 -0.44492,-0.47875 -0.73633,-0.64062c-0.29096,-0.16163 -0.62831,-0.31471 -1.02539,-0.51562h-0.00195c-0.41292,-0.21079 -1.60822,-0.80922 -2.80273,-1.39258c-1.19518,-0.58368 -2.33216,-1.13343 -2.79883,-1.30664h-0.00195c-0.38272,-0.13978 -0.76729,-0.28131 -1.2168,-0.22852c-0.44951,0.05279 -0.87748,0.35182 -1.19727,0.83594c-0.48915,0.7405 -2.06975,2.63524 -2.5332,3.16992v0.00195h-0.00195c-0.19092,0.22067 -0.30128,0.27651 -0.43359,0.29297c-0.13231,0.01646 -0.35917,-0.02401 -0.72266,-0.20508l0.00391,0.00391c-0.47254,-0.24124 -1.27672,-0.53729 -2.39062,-1.14062c-1.11391,-0.60333 -2.5072,-1.49729 -4.02539,-2.86914c-2.3444,-2.11802 -3.95967,-4.76852 -4.42188,-5.57227v-0.00195c-0.18545,-0.31976 -0.16531,-0.43845 -0.11719,-0.57031c0.04772,-0.13073 0.19244,-0.30238 0.39063,-0.50391l0.00391,-0.00391c0.41553,-0.41416 0.85715,-1.00774 1.24805,-1.46875l0.00195,-0.00195v-0.00195c0.43969,-0.52741 0.60658,-0.93093 0.87305,-1.46484l0.00195,-0.00195v-0.00195c0.34569,-0.71081 0.16333,-1.40688 -0.06641,-1.87891c-0.02472,-0.05205 -0.17137,-0.40699 -0.35742,-0.86914c-0.18656,-0.4634 -0.42669,-1.06138 -0.68164,-1.69727c-0.50991,-1.27177 -1.08227,-2.6912 -1.45117,-3.52148c-0.32983,-0.74592 -0.70563,-1.19821 -1.13086,-1.44727c-0.42385,-0.24825 -0.84441,-0.26145 -1.13672,-0.27148h-0.00391c-0.49,-0.02052 -1.03551,-0.01953 -1.57617,-0.01953zM38.50586,35.00781c0.542,0 1.07805,0.00021 1.53711,0.01953h0.00195h0.00195c0.28959,0.01 0.47665,0.02157 0.66992,0.13477c0.19327,0.1132 0.44449,0.35921 0.72266,0.98828v0.00195c0.3531,0.79471 0.92841,2.21855 1.4375,3.48828c0.25455,0.63487 0.49407,1.23135 0.68164,1.69727c0.18757,0.46591 0.30987,0.77272 0.38477,0.92969v0.00195l0.00195,0.00195c0.17227,0.35397 0.25471,0.61672 0.06641,1.00391c-0.27964,0.5607 -0.3829,0.83232 -0.74414,1.26563l0.00391,-0.00195c-0.42199,0.49768 -0.87588,1.09246 -1.19531,1.41016l-0.00195,0.00195l-0.00195,0.00195c-0.20616,0.2092 -0.47522,0.46755 -0.62109,0.86719c-0.14587,0.39964 -0.09814,0.91482 0.19141,1.41406c0.48867,0.84963 2.13676,3.57354 4.61719,5.81445c1.58325,1.43041 3.04827,2.37188 4.21875,3.00586c1.17084,0.63417 2.0776,0.98058 2.41406,1.15234h0.00195l0.00195,0.00195c0.45152,0.22493 0.86683,0.35357 1.29102,0.30078c0.42361,-0.05271 0.78251,-0.30318 1.06641,-0.63086c0.48655,-0.56132 2.02238,-2.3779 2.61523,-3.27539c0.22121,-0.33488 0.33432,-0.37783 0.47656,-0.39453c0.14224,-0.01671 0.39853,0.04456 0.75781,0.17578c0.28374,0.10553 1.51629,0.68506 2.70508,1.26563c1.18982,0.58107 2.39234,1.18224 2.78906,1.38477h0.00195c0.41813,0.21163 0.75884,0.36842 0.99219,0.49805c0.23335,0.12962 0.33552,0.22859 0.35938,0.26953c-0.03652,-0.063 0.02415,0.07595 0.03906,0.27344c0.01491,0.19749 0.01219,0.4718 -0.01562,0.79688c-0.05561,0.65015 -0.21647,1.50424 -0.53906,2.41992c-0.26934,0.76732 -1.18793,1.68631 -2.23633,2.37305c-1.0484,0.68674 -2.24389,1.15409 -2.82031,1.20898c-0.78723,0.07176 -1.41133,0.22984 -2.74023,0.04883c-1.32985,-0.18114 -3.35948,-0.71476 -6.76758,-2.07422c-4.01955,-1.60704 -7.33698,-4.52239 -9.69141,-7.11133c-1.17721,-1.29447 -2.11438,-2.50564 -2.78125,-3.42578c-0.33344,-0.46007 -0.59913,-0.84686 -0.79492,-1.13672c-0.19579,-0.28986 -0.30109,-0.45983 -0.38867,-0.57617c-0.41745,-0.57049 -3.2168,-4.40441 -3.2168,-8.20312c0,-3.87724 1.92814,-5.65894 2.71875,-6.52344v-0.00195h0.00195c0.63758,-0.70976 1.37859,-0.86328 1.78711,-0.86328z"></path></g></g></svg>